<?xml version="1.0" standalone="no"?>
<!DOCTYPE svg PUBLIC "-//W3C//DTD SVG 20010904//EN"
 "http://www.w3.org/TR/2001/REC-SVG-20010904/DTD/svg10.dtd">
<svg version="1.0" xmlns="http://www.w3.org/2000/svg"
 width="500.000000pt" height="500.000000pt" viewBox="0 0 500.000000 500.000000"
 preserveAspectRatio="xMidYMid meet">
<metadata>
Created by potrace 1.14, written by Peter Selinger 2001-2017
</metadata>
<g transform="translate(0.000000,500.000000) scale(0.100000,-0.100000)"
fill="#000000" stroke="none">
<path d="M2990 3853 c5 -2 8 -9 4 -14 -3 -5 3 -12 13 -15 36 -12 85 -36 81
-40 -2 -2 -33 5 -69 16 -35 11 -72 20 -81 20 -10 0 -18 5 -18 10 0 6 12 10 27
10 14 0 24 3 20 6 -12 12 -137 -7 -137 -21 0 -15 -42 -28 -64 -19 -10 4 -16 1
-16 -7 0 -8 -11 -15 -25 -15 -14 -1 -23 2 -20 6 3 5 -3 7 -12 6 -9 -2 -19 -9
-21 -17 -2 -8 -14 -22 -26 -32 -11 -10 -16 -16 -10 -13 7 3 14 -3 17 -13 3
-15 0 -17 -17 -13 -11 3 -18 2 -14 -3 4 -4 22 -11 40 -15 l33 -7 -29 -12 c-28
-11 -28 -12 -10 -26 19 -15 19 -15 0 -30 -18 -14 -18 -15 8 -24 14 -6 26 -15
26 -20 0 -5 9 -7 20 -4 11 3 20 12 20 19 0 8 5 14 11 14 6 0 9 -8 6 -19 -5
-21 28 -57 38 -41 4 6 12 10 18 9 9 0 9 -2 0 -5 -15 -7 -5 -34 12 -34 7 0 15
-5 17 -11 3 -9 9 -9 25 -1 21 12 106 11 153 -1 14 -4 49 -8 79 -10 46 -3 51
-1 35 10 -10 7 -12 13 -6 13 7 0 18 11 24 25 7 15 17 24 25 21 8 -3 16 2 19
12 3 9 11 27 17 39 7 17 7 30 -1 48 -7 14 -12 40 -12 57 0 23 -4 29 -16 24 -8
-3 -13 -2 -10 3 7 10 -80 71 -101 71 -7 0 -13 4 -13 8 0 8 -41 33 -63 38 -4 2
-3 0 3 -3z m-60 -123 c0 -15 -7 -20 -25 -20 -24 0 -34 18 -18 33 15 15 43 7
43 -13z"/>
<path d="M3905 3805 c36 -26 65 -49 102 -80 l35 -29 -28 51 c-16 29 -40 57
-53 63 -22 10 -23 10 -10 -6 13 -16 12 -16 -18 -1 -39 21 -55 22 -28 2z m85
-35 c6 -11 8 -20 6 -20 -3 0 -10 9 -16 20 -6 11 -8 20 -6 20 3 0 10 -9 16 -20z"/>
<path d="M1694 3699 c-3 -5 -17 -9 -32 -9 -24 -1 -25 -2 -9 -11 17 -10 17 -12
-8 -25 -34 -17 -48 -18 -39 -1 4 7 3 8 -2 4 -5 -5 -9 -16 -9 -25 0 -9 -11 -22
-25 -29 -14 -7 -22 -13 -17 -13 4 0 -11 -29 -34 -65 -47 -75 -49 -110 -6 -110
15 1 27 -2 27 -6 0 -4 15 -10 34 -13 19 -4 40 -13 47 -22 7 -8 18 -13 26 -10
8 3 12 2 8 -3 -9 -15 64 -5 83 11 21 19 55 31 47 18 -8 -14 37 -8 52 6 7 7 15
23 19 38 6 27 36 51 48 39 3 -3 6 1 6 11 0 13 6 15 27 10 23 -6 25 -5 18 12
-4 10 -8 25 -8 32 0 6 -4 12 -8 12 -4 0 -5 8 -2 19 3 12 -2 20 -16 24 -13 3
-21 14 -22 29 -1 21 -2 21 -7 3 -4 -11 -15 -21 -24 -21 -9 -1 -14 4 -12 10 3
7 -11 17 -30 24 -19 7 -38 21 -41 31 -6 21 -81 45 -91 30z m36 -102 c0 -7 -13
-18 -30 -24 -24 -9 -30 -9 -30 2 0 15 27 34 48 35 6 0 12 -6 12 -13z"/>
<path d="M3485 3670 c1 -14 5 -35 9 -47 7 -20 5 -21 -24 -13 -20 6 -28 5 -24
-1 9 -15 -5 -61 -17 -53 -18 10 -3 -67 26 -136 14 -36 28 -73 30 -84 2 -10 9
-24 15 -31 6 -7 8 -19 4 -28 -3 -8 -1 -18 4 -21 12 -7 2 -57 -15 -74 -10 -10
-10 -18 -2 -34 6 -11 7 -18 1 -14 -5 3 -10 -10 -11 -32 -4 -72 -7 -87 -19
-110 -7 -12 -10 -27 -7 -32 3 -6 2 -10 -4 -10 -6 0 -8 -23 -6 -57 2 -31 0 -62
-6 -69 -6 -7 -8 -17 -5 -22 3 -5 -5 -15 -19 -22 -16 -9 -23 -21 -23 -39 1 -42
-12 -71 -32 -71 -19 0 -36 -43 -24 -62 5 -7 2 -8 -6 -3 -10 6 -12 4 -6 -11 21
-51 27 -95 29 -206 2 -90 -1 -122 -10 -125 -7 -3 -13 -16 -13 -29 0 -14 -6
-24 -14 -24 -8 0 -16 -11 -18 -25 -3 -23 -7 -18 -35 35 -30 54 -47 100 -22 58
27 -47 40 5 14 56 -19 35 -19 37 0 30 19 -8 19 0 -1 42 -16 34 -31 41 -87 42
-25 0 -28 -3 -25 -23 4 -18 1 -22 -11 -17 -12 4 -11 -2 6 -30 l21 -35 -22 1
c-14 1 -21 -5 -22 -19 -1 -22 -10 -50 -25 -77 -5 -10 -9 -25 -9 -33 0 -8 -4
-15 -8 -15 -5 0 -23 -23 -41 -50 -31 -47 -89 -87 -101 -70 -3 4 -22 10 -42 14
-21 4 -38 11 -38 16 0 5 -13 32 -30 60 -33 56 -38 83 -15 74 8 -4 15 -1 15 6
0 8 9 10 25 6 33 -8 32 6 -2 50 -32 39 -43 43 -43 14 0 -21 -16 -29 -17 -7 0
6 -4 21 -9 32 -7 18 -6 18 9 6 11 -8 17 -9 17 -3 0 6 8 9 18 5 14 -5 13 -3 -3
10 -16 13 -17 18 -7 25 10 7 7 13 -13 26 -15 10 -24 20 -21 23 7 8 -13 33 -26
33 -6 0 -4 -8 3 -17 13 -16 12 -17 -2 -5 -9 7 -19 22 -22 33 -5 18 -2 20 21
15 23 -5 22 -3 -9 13 -19 11 -41 26 -47 34 -9 11 -6 13 21 10 17 -2 26 0 19 3
-6 3 -9 10 -6 16 3 5 -3 18 -15 29 -12 11 -21 27 -21 35 0 9 -5 12 -12 8 -7
-5 -8 -3 -4 5 6 9 12 9 25 -3 10 -9 23 -16 29 -16 19 0 14 18 -5 23 -16 4 -16
5 1 6 14 1 17 7 14 26 -3 14 -1 25 3 25 5 0 9 9 9 20 0 11 6 20 14 20 21 0 26
46 7 65 -14 14 -14 17 -1 25 13 8 13 10 -2 10 -18 0 -33 33 -23 50 3 5 -1 10
-10 10 -10 0 -15 7 -13 17 3 16 -89 123 -106 123 -5 0 -17 6 -25 14 -37 32
-104 42 -248 33 -150 -9 -204 -25 -241 -72 -11 -14 -27 -25 -36 -25 -10 0 -27
-22 -43 -55 -23 -51 -25 -64 -20 -138 7 -100 29 -169 60 -183 12 -5 21 -16 19
-24 -2 -8 1 -23 6 -34 32 -69 34 -84 15 -110 -10 -14 -21 -26 -25 -26 -5 0 -8
-4 -8 -9 0 -15 64 -8 77 9 9 12 10 9 6 -13 -3 -15 -10 -30 -16 -34 -6 -3 -7
-1 -3 5 4 7 3 12 -3 12 -15 0 -41 -29 -41 -46 0 -12 4 -13 22 -3 22 12 22 12
5 -14 -21 -32 -21 -37 -2 -37 8 0 14 -3 14 -7 -3 -21 3 -33 17 -33 11 0 14 -5
10 -16 -3 -9 -6 -22 -6 -30 0 -10 -5 -12 -12 -8 -10 6 -10 5 -1 -7 7 -8 9 -25
6 -38 -4 -17 -8 -19 -14 -9 -6 9 -9 5 -9 -14 0 -15 -4 -30 -10 -33 -5 -3 -10
3 -10 14 0 23 -10 27 -27 10 -13 -13 0 -58 20 -72 8 -5 5 -7 -7 -5 -15 2 -22
-6 -28 -31 -12 -43 -30 -57 -86 -65 -48 -6 -99 11 -139 47 -13 11 -25 18 -28
16 -5 -6 44 -112 56 -119 5 -3 15 -24 23 -47 20 -57 77 -135 112 -153 16 -8
35 -23 43 -33 9 -12 22 -17 37 -14 15 3 24 0 24 -9 0 -25 45 -83 60 -78 8 3
22 7 30 8 8 2 15 7 14 12 0 8 -71 163 -93 204 -7 14 -15 43 -40 159 l-9 43 31
-6 c18 -4 34 -11 35 -16 2 -6 14 -10 27 -10 13 0 27 -5 30 -10 3 -6 25 -19 47
-30 31 -15 45 -17 55 -9 10 9 13 8 13 -5 0 -13 8 -15 37 -11 53 7 81 -3 91
-33 8 -24 9 -24 26 21 23 62 42 72 74 40 21 -21 32 -24 68 -20 32 3 41 1 37
-9 -4 -10 2 -11 28 -4 19 6 42 7 52 4 16 -5 18 -2 12 15 -4 12 -2 21 4 21 6 0
11 -6 11 -14 0 -9 7 -12 20 -9 11 3 20 13 20 23 0 10 7 21 16 24 11 4 14 1 11
-12 -3 -9 -11 -42 -17 -72 -7 -30 -18 -62 -25 -70 -8 -8 -19 -34 -27 -58 -7
-23 -16 -42 -20 -42 -5 0 -8 -8 -8 -19 0 -27 -33 -65 -90 -101 -39 -25 -70
-35 -132 -44 -80 -12 -116 -8 -221 19 -23 6 -26 5 -21 -9 4 -10 12 -15 19 -12
8 3 16 -1 18 -8 3 -7 19 -16 36 -19 24 -5 31 -12 30 -29 0 -22 -1 -22 -9 -3
l-9 20 1 -20 c0 -23 15 -75 17 -60 1 6 5 4 10 -4 7 -12 33 -14 117 -13 59 1
112 6 118 12 5 5 19 10 31 10 34 0 66 29 65 59 -3 42 -1 53 11 45 8 -4 7 -9
-2 -16 -11 -7 -9 -8 4 -4 10 3 21 6 23 6 2 0 4 9 4 19 0 29 16 34 45 15 29
-19 39 -14 40 19 0 17 6 22 28 22 15 0 31 5 35 12 9 14 70 24 78 12 3 -5 17
-9 31 -9 l26 0 -21 -23 c-12 -13 -22 -29 -22 -36 0 -8 -6 -11 -15 -7 -10 4
-15 -1 -15 -14 0 -12 -7 -20 -16 -20 -27 0 -42 -30 -38 -74 4 -40 -4 -33 -20
17 -3 9 -13 17 -22 17 -10 0 -14 -5 -11 -14 4 -9 -2 -17 -14 -21 -10 -4 -19
-10 -19 -15 0 -5 -6 -7 -14 -4 -7 3 -20 -2 -29 -10 -8 -8 -18 -12 -22 -8 -3 4
-4 -7 0 -23 5 -23 4 -26 -4 -15 -7 9 -14 11 -18 5 -5 -5 -17 -10 -28 -10 -25
0 -32 -35 -39 -189 -4 -87 -1 -126 8 -145 22 -43 30 -75 16 -66 -6 4 -17 -1
-24 -10 -11 -15 -14 -13 -29 17 -10 18 -24 71 -31 118 -18 106 -7 181 30 201
14 7 23 17 21 23 -3 6 0 19 4 28 7 12 4 18 -11 23 -23 7 -40 -1 -40 -20 0 -8
-4 -17 -10 -20 -6 -3 -7 1 -4 10 7 17 -24 58 -37 49 -5 -3 -9 0 -9 7 0 9 -3 9
-14 -1 -8 -6 -26 -10 -39 -8 -13 1 -35 -5 -50 -15 -15 -10 -27 -14 -27 -10 0
3 -10 -3 -22 -15 -13 -11 -27 -20 -33 -19 -5 1 -12 -16 -15 -38 -3 -22 -9 -45
-13 -52 -4 -6 -2 -13 4 -15 9 -3 16 -34 18 -87 1 -8 8 -11 20 -8 17 4 19 2 10
-22 -9 -25 -9 -25 7 -6 12 14 18 16 21 7 3 -7 12 -19 20 -27 23 -23 24 -216 2
-241 -9 -11 -20 -36 -23 -57 -4 -21 -10 -46 -13 -55 -4 -15 -3 -15 6 -2 8 11
10 7 5 -20 -3 -19 -15 -48 -27 -64 -15 -22 -22 -54 -28 -120 -4 -50 -11 -99
-15 -109 -4 -12 0 -23 12 -31 16 -12 17 -18 6 -40 -15 -32 -16 -58 -2 -36 5 8
10 11 10 5 0 -5 4 -17 10 -25 7 -12 12 -12 29 4 12 11 21 14 21 9 0 -6 -7 -16
-15 -23 -8 -7 -15 -20 -15 -30 0 -9 -3 -20 -7 -24 -4 -3 -7 -15 -8 -26 -1 -16
3 -19 17 -14 17 5 18 3 7 -14 -19 -30 2 -73 30 -65 12 3 21 1 21 -6 0 -15 -50
-14 -50 2 -1 8 -5 6 -13 -4 -7 -9 -25 -16 -41 -16 -27 0 -56 -24 -56 -45 0 -4
171 -8 380 -8 324 0 380 2 380 14 0 8 8 21 18 28 9 7 25 24 33 38 9 14 32 41
51 60 49 50 86 109 93 152 8 44 1 47 -33 16 -23 -21 -25 -21 -17 -3 16 41 11
69 -16 82 -17 8 -30 26 -38 53 -8 28 -23 48 -49 65 -67 45 -87 60 -91 69 -2 5
-11 16 -21 26 -17 17 -24 57 -36 201 -6 70 5 109 31 109 8 0 27 13 41 30 15
16 31 27 35 24 5 -3 9 -1 9 5 0 20 85 141 99 141 14 0 30 -47 20 -57 -7 -7 -5
-12 5 -16 9 -4 16 -2 16 3 0 11 29 40 40 40 5 0 7 -15 5 -32 -3 -18 -2 -26 1
-18 4 8 15 21 24 27 10 7 21 25 25 40 5 20 9 24 15 13 5 -8 3 -27 -6 -48 -8
-20 -10 -40 -6 -48 6 -11 16 1 37 43 26 53 28 56 37 34 5 -15 4 -28 -3 -38
-19 -22 -6 -23 21 -1 14 11 19 16 11 12 -9 -4 -12 -2 -9 7 3 8 14 15 25 17 13
2 24 13 28 29 6 24 7 24 19 7 11 -15 17 -16 42 -5 53 22 94 67 115 126 18 53
19 57 2 73 -15 16 -15 17 0 20 25 5 21 31 -8 58 -14 13 -25 31 -25 41 1 13 5
11 16 -9 15 -29 44 -38 44 -14 0 7 -7 19 -15 26 -9 8 -12 16 -6 19 5 4 -1 16
-15 28 -13 12 -24 18 -24 13 0 -5 5 -12 10 -15 12 -8 13 -25 1 -25 -5 0 -14
13 -20 29 -10 23 -9 35 3 66 9 21 16 50 16 65 0 20 6 29 23 34 21 6 21 7 4 20
-14 11 -15 15 -4 24 7 6 18 28 25 49 8 21 18 48 25 61 9 19 8 25 -3 32 -13 8
-12 10 1 10 26 0 31 -50 9 -81 -12 -17 -15 -30 -9 -36 6 -6 4 -23 -6 -46 -29
-69 -11 -87 45 -45 24 17 30 29 30 59 0 21 -6 40 -12 42 -9 4 -10 8 -2 14 18
13 42 159 24 148 -7 -4 -10 4 -8 24 1 17 5 31 9 31 3 0 7 20 7 44 1 40 -1 43
-19 39 -20 -6 -35 -16 -99 -76 -37 -34 -38 -29 -4 20 16 24 23 45 20 59 -7 26
23 38 42 17 20 -20 42 -16 70 16 27 29 67 144 57 162 -4 5 -2 9 3 9 23 0 21
34 -3 60 -14 14 -25 31 -25 38 0 11 -18 16 -46 13 -13 -1 -47 59 -64 114 -7
22 -19 49 -26 60 -6 11 -15 35 -19 54 -4 18 -18 58 -32 89 -20 46 -26 80 -32
187 -4 71 -6 144 -4 160 5 37 5 45 -2 290 -3 110 -8 211 -11 225 -9 33 -4 83
8 91 6 4 1 19 -13 38 -29 39 -66 40 -64 1z m-1191 -682 c-2 -4 4 -11 13 -17
12 -7 13 -11 5 -11 -8 0 -25 -9 -40 -20 -20 -16 -27 -18 -34 -8 -6 10 -8 10
-8 1 0 -7 -9 -13 -21 -13 -11 0 -29 -5 -40 -10 -10 -6 -19 -8 -19 -6 0 10 51
56 62 56 5 0 7 7 4 16 -5 13 -2 15 14 11 11 -3 20 -1 20 4 0 5 11 8 24 7 14
-1 23 -6 20 -10z m406 -393 c20 -24 6 -28 -15 -5 -10 11 -13 20 -8 20 6 0 16
-7 23 -15z m-32 -58 c5 -7 12 -21 16 -32 5 -15 1 -14 -17 7 -13 15 -26 25 -30
22 -3 -3 -7 -1 -10 3 -9 14 30 13 41 0z m-120 -262 c0 -16 -2 -15 -8 5 -11 34
-11 60 0 35 5 -11 8 -29 8 -40z m716 -178 c16 -23 16 -30 5 -44 -39 -48 -54
-63 -64 -63 -15 0 -55 -72 -60 -109 -6 -46 -16 -75 -33 -87 -8 -6 -16 -20 -17
-31 0 -10 -11 -35 -23 -55 -14 -23 -20 -43 -15 -54 6 -16 4 -17 -9 -6 -21 17
-48 5 -48 -21 0 -20 -1 -20 -20 -2 -22 20 -19 47 6 73 8 7 14 20 14 28 0 8 4
14 10 14 5 0 17 15 26 33 9 17 34 53 55 78 23 28 43 66 50 95 6 27 17 54 23
59 7 6 15 18 19 28 4 11 16 21 27 24 20 5 23 14 21 68 0 19 2 25 7 15 4 -8 15
-27 26 -43z m429 -127 c-20 -23 -55 -28 -47 -6 5 14 23 22 51 25 8 1 7 -6 -4
-19z m37 -100 c0 -13 -6 -20 -17 -19 -11 0 -13 3 -5 6 6 2 12 11 12 19 0 8 2
14 5 14 3 0 5 -9 5 -20z m-1560 -280 c-8 -5 -17 -7 -19 -4 -3 3 1 9 9 14 8 5
17 7 19 4 3 -3 -1 -9 -9 -14z m540 -337 c-15 -32 -25 -16 -15 24 4 19 9 23 17
15 9 -9 8 -19 -2 -39z m-159 0 c-12 -20 -14 -14 -5 12 4 9 9 14 11 11 3 -2 0
-13 -6 -23z m244 -252 c3 -16 3 -41 -1 -56 -5 -20 -4 -26 4 -21 24 15 -5 -89
-35 -125 -8 -9 -15 -31 -18 -49 -2 -18 -14 -44 -27 -59 -46 -52 -73 -78 -95
-90 -13 -6 -23 -17 -23 -23 0 -11 -29 -37 -42 -38 -4 0 -1 12 7 27 8 15 12 29
10 31 -2 3 -22 -4 -45 -15 -39 -20 -40 -20 -40 -2 0 11 -5 19 -10 19 -7 0 -7
6 -1 19 6 10 8 21 5 24 -20 20 75 99 134 111 17 4 32 12 32 17 0 5 8 9 19 9
20 0 43 29 56 70 7 24 7 24 -12 8 -11 -10 -26 -18 -34 -18 -7 0 1 13 20 30 29
27 32 36 31 78 -4 102 -3 102 29 91 21 -7 32 -19 36 -38z m-165 -165 c0 -2 -7
-9 -15 -16 -12 -10 -15 -10 -15 4 0 9 7 16 15 16 8 0 15 -2 15 -4z m30 -280
c0 -2 -8 -10 -17 -17 -16 -13 -17 -12 -4 4 13 16 21 21 21 13z m-110 -50 c0
-3 -4 -8 -10 -11 -5 -3 -10 -1 -10 4 0 6 5 11 10 11 6 0 10 -2 10 -4z m120
-41 c9 5 9 3 0 -12 -7 -10 -21 -20 -31 -20 -11 -1 -17 2 -14 8 4 5 1 9 -6 9
-7 0 -4 6 7 14 12 10 21 11 25 4 4 -6 12 -7 19 -3z m-77 -35 c3 -11 1 -18 -4
-14 -5 3 -9 12 -9 20 0 20 7 17 13 -6z m94 -137 c6 -27 10 -49 8 -51 -3 -3
-45 85 -45 94 0 2 6 4 13 4 8 0 18 -20 24 -47z"/>
<path d="M2766 903 c-9 -9 -7 -41 3 -47 5 -3 11 6 14 19 4 25 -4 40 -17 28z"/>
<path d="M3980 3576 c0 -9 5 -16 10 -16 6 0 10 4 10 9 0 6 -4 13 -10 16 -5 3
-10 -1 -10 -9z"/>
<path d="M3940 3533 c0 -5 12 -25 26 -44 14 -19 29 -41 34 -49 7 -12 11 -12
21 -3 9 9 8 15 -4 28 -9 9 -22 24 -29 33 -18 24 -48 46 -48 35z"/>
<path d="M4064 3524 c3 -9 6 -23 6 -31 0 -8 24 -37 54 -65 55 -50 76 -96 76
-165 0 -23 -7 -15 -36 42 -19 39 -41 75 -48 80 -7 6 -18 19 -24 30 -9 16 -11
17 -12 4 0 -9 11 -32 24 -52 13 -19 30 -52 37 -73 7 -22 17 -44 21 -50 16 -22
37 -95 26 -88 -8 5 -9 -8 -4 -47 l7 -54 -21 23 c-11 12 -25 22 -30 22 -4 0 -6
-44 -3 -97 l5 -98 -19 30 c-11 17 -32 54 -48 83 -36 67 -56 49 -24 -23 11 -26
18 -54 14 -63 -6 -15 -8 -14 -15 4 -5 12 -18 24 -29 27 -17 4 -22 -1 -27 -28
-11 -59 11 -117 32 -83 12 20 23 -21 22 -87 0 -61 -2 -60 -13 10 -7 39 -7 39
-20 16 l-13 -25 -6 31 c-5 22 -15 33 -32 37 -21 6 -24 12 -24 52 0 24 -6 60
-14 79 -12 28 -12 36 -1 52 12 16 14 14 20 -20 4 -20 11 -37 16 -37 15 0 10
25 -15 81 -20 44 -26 50 -32 35 -7 -17 -8 -17 -21 5 -14 24 -14 24 -9 -6 4
-27 3 -28 -10 -11 -8 11 -16 17 -20 14 -3 -4 -7 -46 -9 -95 -2 -85 2 -114 31
-195 8 -21 11 -44 8 -52 -3 -8 1 -41 9 -73 8 -32 12 -76 10 -99 -7 -61 14 -72
63 -34 21 16 58 44 82 62 l44 33 -6 61 c-4 33 -4 63 0 66 10 10 53 -33 47 -48
-2 -7 -2 -18 2 -25 13 -21 27 18 15 41 -8 16 -8 18 4 14 9 -3 17 3 21 15 3 12
11 19 16 16 5 -4 9 10 9 31 0 31 2 35 14 24 13 -10 14 -1 11 62 l-5 73 21 -30
c12 -17 19 -22 15 -12 -3 9 0 28 6 42 8 19 8 35 -1 67 -7 24 -15 51 -17 61 -4
12 0 17 15 17 12 0 21 5 21 11 0 7 4 8 13 2 6 -5 26 -15 42 -22 l30 -13 -25
27 c-19 20 -22 28 -11 34 10 7 10 12 -4 29 -16 18 -44 85 -45 105 0 4 17 -10
37 -33 32 -34 63 -52 63 -35 0 3 -21 28 -47 57 -27 28 -60 65 -75 81 -16 17
-28 34 -28 38 0 5 -10 9 -22 9 -31 1 -51 18 -68 59 -16 39 -57 91 -72 91 -6 0
-7 -7 -4 -16z m133 -316 c-3 -8 -6 -5 -6 6 -1 11 2 17 5 13 3 -3 4 -12 1 -19z
m-50 -340 c-3 -7 -5 -2 -5 12 0 14 2 19 5 13 2 -7 2 -19 0 -25z"/>
<path d="M2975 3490 c3 -5 8 -10 11 -10 2 0 4 5 4 10 0 6 -5 10 -11 10 -5 0
-7 -4 -4 -10z"/>
<path d="M1191 3149 c-1 -65 3 -101 12 -114 21 -28 25 -7 15 75 -17 132 -26
145 -27 39z"/>
<path d="M4050 3177 c0 -7 7 -22 15 -33 12 -16 14 -17 15 -2 0 23 -11 48 -21
48 -5 0 -9 -6 -9 -13z"/>
<path d="M1195 2953 c3 -32 8 -76 11 -98 3 -29 1 -36 -6 -25 -5 8 -10 27 -10
41 0 42 -12 89 -20 84 -5 -3 -4 -19 0 -37 5 -17 7 -35 4 -39 -3 -5 -7 -48 -9
-96 -7 -124 -24 -239 -45 -303 -11 -30 -22 -79 -26 -108 -10 -78 -19 -71 -20
16 -1 47 -6 78 -13 80 -6 2 -11 0 -12 -5 0 -4 -2 -30 -4 -58 -9 -125 -17 -183
-30 -220 -7 -22 -19 -60 -26 -85 -7 -25 -16 -49 -20 -55 -4 -5 -14 -26 -22
-46 -14 -35 -14 -36 4 -32 21 6 67 56 80 88 5 11 13 39 19 61 12 50 37 64 50
30 5 -13 14 -27 19 -31 6 -3 11 -17 11 -31 0 -13 3 -24 8 -24 4 0 7 -34 7 -76
0 -66 3 -79 20 -88 11 -6 23 -15 26 -20 10 -13 19 22 28 109 10 88 21 110 21
41 0 -40 2 -45 14 -34 8 7 10 15 5 16 -14 6 -10 29 6 36 11 4 15 -1 15 -17 1
-18 4 -15 16 12 27 64 5 80 -69 50 -15 -7 -30 -9 -34 -6 -3 3 6 9 21 13 14 3
26 10 26 15 0 5 11 14 25 21 13 6 22 14 20 19 -3 4 -1 19 5 33 6 17 6 26 0 26
-13 0 -3 120 12 137 5 7 8 18 5 25 -4 9 -6 7 -6 -3 -1 -9 -8 -20 -17 -23 -14
-5 -15 -1 -9 31 3 21 13 50 20 66 7 15 10 27 5 27 -4 0 -10 -7 -14 -15 -3 -8
-9 -15 -14 -15 -10 0 -14 49 -5 64 12 17 10 54 -2 50 -7 -3 -11 42 -13 133 -2
76 -5 154 -8 173 -6 37 -44 150 -50 150 -2 0 -2 -26 1 -57z"/>
<path d="M3950 2916 c0 -14 5 -26 10 -26 6 0 10 9 10 19 0 11 -4 23 -10 26 -6
4 -10 -5 -10 -19z"/>
<path d="M4241 2880 c0 -8 4 -24 9 -35 5 -13 9 -14 9 -5 0 8 -4 24 -9 35 -5
13 -9 14 -9 5z"/>
<path d="M3150 2486 c0 -22 27 -27 33 -5 4 14 0 19 -14 19 -10 0 -19 -6 -19
-14z"/>
<path d="M1422 2390 c-27 -25 -27 -30 -3 -30 11 0 23 9 26 21 10 29 2 32 -23
9z"/>
<path d="M3990 2375 c0 -11 5 -27 10 -35 8 -12 10 -12 10 5 0 11 -5 27 -10 35
-8 12 -10 12 -10 -5z"/>
<path d="M1621 2324 c-11 -15 -21 -36 -21 -48 0 -26 36 -61 44 -43 2 7 5 4 5
-5 1 -10 5 -18 11 -18 12 0 20 32 23 90 2 39 -1 45 -19 48 -14 2 -29 -7 -43
-24z"/>
<path d="M3850 2188 c0 -12 6 -29 13 -37 8 -9 20 -38 27 -66 7 -27 19 -61 26
-75 8 -14 19 -38 26 -55 9 -24 12 -26 16 -11 5 22 -26 106 -39 106 -6 0 -7 5
-4 10 4 6 1 17 -5 25 -7 8 -10 24 -7 35 3 11 1 20 -3 20 -4 0 -6 10 -3 21 4
15 0 27 -12 35 -26 19 -35 17 -35 -8z"/>
<path d="M1675 2190 c3 -5 8 -10 11 -10 2 0 4 5 4 10 0 6 -5 10 -11 10 -5 0
-7 -4 -4 -10z"/>
<path d="M1697 2167 c-3 -7 4 -19 15 -26 17 -11 19 -10 16 10 -4 26 -23 36
-31 16z"/>
<path d="M2845 2150 c3 -5 11 -10 16 -10 6 0 7 5 4 10 -3 6 -11 10 -16 10 -6
0 -7 -4 -4 -10z"/>
<path d="M3827 2073 c-6 -33 6 -58 33 -73 25 -14 25 -6 -4 53 -23 46 -24 47
-29 20z"/>
<path d="M1316 2015 c-3 -8 -1 -15 4 -15 6 0 10 7 10 15 0 8 -2 15 -4 15 -2 0
-6 -7 -10 -15z"/>
<path d="M1530 2007 c-14 -7 -26 -23 -28 -35 -3 -18 -8 -21 -24 -16 -15 4 -31
-5 -64 -37 -32 -32 -47 -40 -53 -31 -5 9 -15 6 -36 -12 -16 -14 -31 -25 -34
-24 -25 2 -41 -4 -41 -18 0 -8 -13 -20 -30 -25 -33 -12 -39 -26 -14 -36 13 -5
13 -7 2 -14 -9 -6 -4 -9 15 -9 23 0 27 -3 22 -22 -5 -21 -2 -23 35 -25 22 0
40 2 40 7 0 4 11 5 24 3 13 -3 38 2 55 11 17 9 31 13 31 9 0 -4 5 -2 11 4 8 8
8 17 -1 33 -10 19 -18 22 -54 17 -43 -6 -86 0 -86 12 0 3 19 12 41 19 44 14
116 58 162 100 15 14 27 22 27 19 0 -4 14 6 30 23 34 35 37 45 14 54 -19 7
-14 8 -44 -7z"/>
<path d="M3800 1981 c0 -17 2 -31 4 -31 8 0 13 51 5 56 -5 3 -9 -9 -9 -25z"/>
<path d="M3830 1925 c0 -8 4 -15 10 -15 5 0 7 7 4 15 -4 8 -8 15 -10 15 -2 0
-4 -7 -4 -15z"/>
<path d="M3831 1850 c1 -85 17 -120 18 -40 0 36 -4 72 -9 80 -7 11 -9 -1 -9
-40z"/>
<path d="M1280 1881 c0 -5 5 -13 10 -16 6 -3 10 -2 10 4 0 5 -4 13 -10 16 -5
3 -10 2 -10 -4z"/>
<path d="M3767 1803 c-13 -12 -7 -111 8 -139 15 -28 15 -25 12 54 -4 82 -8 98
-20 85z"/>
<path d="M1313 1693 c-24 -3 -33 -9 -33 -23 0 -10 8 -21 18 -23 16 -4 16 -5 0
-6 -10 0 -18 -5 -18 -11 0 -14 60 -11 95 5 l30 13 -45 2 -45 2 36 7 c19 4 46
15 59 24 24 17 24 17 -20 15 -25 0 -60 -3 -77 -5z"/>
<path d="M4006 1604 c-9 -8 -16 -30 -16 -48 0 -18 -3 -36 -6 -39 -4 -4 -9 -28
-11 -54 -2 -27 -5 -61 -7 -78 -2 -16 1 -36 8 -44 9 -12 6 -13 -16 -9 -27 5
-28 4 -29 -41 -2 -68 -3 -74 -14 -78 -6 -2 -17 13 -24 33 -7 20 -22 45 -32 55
-19 19 -20 19 -17 -40 1 -33 -1 -63 -5 -67 -4 -4 -7 5 -7 20 0 23 -3 26 -20
21 -15 -5 -18 -3 -14 9 4 10 1 16 -7 16 -7 0 -9 -3 -6 -7 4 -3 2 -12 -4 -19
-7 -9 -7 -19 0 -32 9 -17 8 -19 -8 -15 -16 4 -20 -2 -25 -39 -11 -85 -12 -117
-4 -112 4 3 8 -2 8 -10 0 -8 6 -21 14 -28 7 -8 20 -27 29 -44 24 -47 114 -132
162 -153 25 -11 45 -25 45 -32 0 -7 -3 -9 -7 -6 -3 4 -18 0 -31 -9 -21 -14
-24 -14 -19 -2 3 10 -6 19 -30 27 -69 25 -151 119 -172 199 -14 50 -27 53 -45
11 -9 -21 -15 -27 -19 -18 -3 8 -6 2 -6 -13 -1 -16 -5 -28 -11 -28 -5 0 -12
-16 -16 -35 -3 -19 -10 -37 -14 -40 -9 -5 -2 73 11 128 5 20 13 54 18 75 5 20
12 58 16 85 5 39 4 47 -9 47 -9 0 -16 -4 -16 -9 0 -5 -10 -13 -22 -17 -13 -4
-38 -21 -56 -38 l-33 -31 4 -140 c2 -77 7 -150 10 -163 6 -25 30 -52 45 -52 5
0 17 -10 25 -22 8 -13 31 -40 50 -60 42 -43 72 -87 65 -94 -3 -2 -16 7 -29 21
-13 13 -30 25 -38 25 -11 0 -9 -4 5 -16 10 -8 13 -13 6 -9 -6 3 -15 -1 -18
-10 -6 -14 -8 -14 -20 2 -13 16 -14 14 -10 -23 3 -22 1 -45 -2 -51 -8 -12 -52
1 -52 16 0 5 -8 11 -19 14 -14 3 -17 0 -14 -14 3 -9 11 -20 19 -23 8 -3 14
-14 14 -25 0 -11 4 -22 9 -25 11 -7 21 -56 10 -56 -4 0 -11 10 -15 23 -4 12
-15 28 -25 35 -11 7 -19 20 -19 28 0 8 -4 14 -10 14 -16 0 -12 -30 5 -36 8 -4
15 -14 15 -23 0 -13 -2 -13 -9 -2 -12 18 -37 8 -43 -17 -6 -20 16 -54 65 -103
39 -39 34 -57 -7 -25 -19 14 -39 26 -45 26 -6 0 -11 16 -11 36 0 22 -4 33 -11
29 -6 -4 -8 -13 -5 -20 3 -8 -2 -11 -14 -8 -14 4 -20 -3 -26 -39 -5 -23 -8
-49 -7 -55 0 -7 -5 -13 -12 -13 -8 0 -16 -6 -18 -13 -2 -6 -3 2 -1 18 l3 30
-16 -35 c-8 -19 -16 -46 -18 -60 -1 -14 -9 -41 -18 -61 -8 -19 -19 -48 -22
-65 -6 -26 -5 -27 8 -12 12 15 17 15 32 4 10 -7 15 -19 12 -27 -4 -10 -6 -9
-6 4 -1 21 -21 13 -21 -9 0 -11 25 -14 140 -14 81 0 140 4 140 9 0 6 14 18 30
28 17 9 30 24 30 31 0 11 -3 12 -14 3 -11 -9 -15 -7 -19 8 -3 15 2 20 25 25
16 3 38 16 47 28 13 15 28 21 54 20 31 -1 37 2 37 18 0 23 21 26 53 6 31 -19
75 -28 82 -17 8 14 -22 28 -76 36 -56 8 -108 51 -144 118 -13 26 -21 47 -17
47 13 -1 42 -27 42 -38 0 -6 16 -20 35 -32 19 -12 35 -26 35 -31 0 -5 4 -9 10
-9 5 0 7 7 4 15 -7 17 21 21 31 5 3 -5 10 -10 15 -10 14 0 -24 80 -41 85 -9 3
-21 17 -27 30 -6 14 -18 25 -27 25 -8 0 -15 6 -15 13 0 7 -13 23 -30 35 -16
13 -30 29 -30 36 0 8 -14 26 -31 40 -17 14 -26 26 -21 26 20 0 72 -23 72 -31
0 -13 58 -69 70 -69 6 0 10 -7 10 -16 0 -9 30 -46 66 -82 57 -58 65 -63 60
-39 -4 15 -16 39 -29 53 -19 22 -22 38 -24 113 -2 116 18 154 31 61 5 -33 4
-41 -3 -30 -9 13 -11 13 -11 -2 0 -21 36 -25 43 -5 4 9 8 8 17 -3 9 -12 10
-10 4 10 -4 14 -12 28 -18 32 -6 4 -7 8 -2 8 5 0 18 -7 28 -17 10 -9 21 -13
24 -10 10 10 21 84 20 133 -1 39 1 44 19 42 18 -3 20 -11 20 -75 0 -40 4 -73
9 -73 4 0 6 -15 2 -32 -3 -18 -1 -40 5 -48 8 -12 10 -9 6 13 -2 15 -1 30 4 33
11 7 49 -14 49 -27 0 -6 -4 -8 -8 -5 -12 7 -8 -55 5 -79 6 -11 17 -35 23 -52
7 -18 17 -33 22 -33 5 0 6 -5 3 -10 -3 -6 3 -10 15 -10 12 0 18 5 15 10 -7 12
-8 17 -30 152 -8 53 -13 121 -10 150 3 29 3 66 -1 81 -5 23 -8 26 -20 16 -11
-9 -14 -8 -15 7 -1 11 -3 30 -4 44 -11 93 -17 262 -10 286 7 28 8 28 15 7 15
-37 22 -103 11 -103 -12 0 -13 -147 -1 -155 5 -3 7 -12 4 -19 -3 -7 3 -19 12
-27 15 -12 16 -12 9 10 -5 16 -4 21 4 17 6 -4 11 -13 11 -21 0 -7 6 -15 13
-18 9 -3 11 12 9 61 -3 46 0 67 10 73 9 6 12 28 10 78 -3 68 -2 69 20 64 13
-3 28 -10 34 -15 20 -15 13 45 -8 75 -11 15 -18 37 -15 47 3 11 -1 24 -9 31
-19 15 -18 49 1 49 8 0 15 8 16 18 0 14 2 14 9 -3 11 -26 136 -155 150 -155
13 0 -4 35 -23 47 -18 12 -39 52 -32 63 8 13 57 -13 91 -48 l26 -27 -4 33 c-3
19 0 32 6 32 6 0 3 7 -8 15 -11 8 -16 21 -12 30 8 22 -67 100 -89 91 -9 -3
-13 -2 -10 4 3 6 -4 10 -15 10 -12 0 -33 9 -47 20 -30 23 -39 20 -24 -8 6 -11
24 -23 40 -27 20 -4 28 -11 24 -21 -11 -28 -93 14 -93 49 0 17 -58 70 -69 63
-5 -4 -12 -2 -16 4 -4 6 5 10 19 10 27 0 34 14 15 26 -8 4 -7 9 2 15 10 6 8 9
-9 9 -13 0 -21 -4 -18 -8 2 -4 1 -14 -4 -21 -6 -10 -10 -8 -15 10 -10 33 -39
59 -67 60 -14 1 -7 5 20 12 34 10 41 14 31 25 -7 6 -21 12 -32 12 -23 0 -47
23 -47 44 0 9 -8 16 -20 16 -11 0 -20 5 -20 10 0 15 -16 12 -34 -6z m260 -343
c-4 -5 -1 -12 4 -14 6 -3 5 -4 -2 -3 -15 3 -23 26 -8 26 6 0 9 -4 6 -9z m169
-11 c13 -5 14 -9 5 -9 -8 0 -24 4 -35 9 -13 5 -14 9 -5 9 8 0 24 -4 35 -9z
m-528 -217 c-3 -3 -14 8 -23 24 -10 15 -24 32 -31 36 -8 5 -11 13 -7 18 3 5
19 -9 36 -32 16 -22 27 -43 25 -46z m225 45 c-7 -7 -12 -8 -12 -2 0 14 12 26
19 19 2 -3 -1 -11 -7 -17z m105 -170 c-3 -8 -6 -5 -6 6 -1 11 2 17 5 13 3 -3
4 -12 1 -19z m-177 -148 c-13 -8 -12 -10 3 -10 21 0 23 -28 2 -37 -23 -8 -28
2 -21 43 6 28 10 34 19 25 9 -9 8 -14 -3 -21z m-81 -185 c0 -14 -2 -16 -6 -5
-3 8 -10 18 -16 21 -5 4 -6 12 -2 19 10 16 25 -6 24 -35z m28 -17 c-3 -8 -6
-5 -6 6 -1 11 2 17 5 13 3 -3 4 -12 1 -19z m-377 -100 c0 -18 -2 -20 -9 -8 -6
8 -7 18 -5 22 9 14 14 9 14 -14z"/>
<path d="M3648 1603 c6 -2 18 -2 25 0 6 3 1 5 -13 5 -14 0 -19 -2 -12 -5z"/>
<path d="M3643 1523 c7 -67 28 -88 40 -41 13 49 0 98 -25 98 -19 0 -20 -4 -15
-57z"/>
<path d="M3716 1415 c-3 -8 -1 -15 4 -15 6 0 10 7 10 15 0 8 -2 15 -4 15 -2 0
-6 -7 -10 -15z"/>
<path d="M3850 1417 c0 -8 7 -17 15 -21 8 -3 15 -3 15 0 0 3 -7 12 -15 20 -13
13 -15 13 -15 1z"/>
<path d="M4260 1415 c0 -8 9 -15 19 -15 11 0 21 -5 23 -10 3 -10 80 -41 86
-35 2 1 0 13 -3 27 -9 36 -125 67 -125 33z"/>
<path d="M3706 1372 c-3 -5 1 -18 9 -28 14 -18 14 -18 15 3 0 23 -15 39 -24
25z"/>
<path d="M4404 1348 c2 -14 11 -24 24 -26 28 -4 30 23 3 38 -28 14 -31 13 -27
-12z"/>
<path d="M3858 1353 c7 -3 16 -2 19 1 4 3 -2 6 -13 5 -11 0 -14 -3 -6 -6z"/>
<path d="M4335 1340 c3 -5 11 -10 16 -10 6 0 7 5 4 10 -3 6 -11 10 -16 10 -6
0 -7 -4 -4 -10z"/>
<path d="M3865 1320 c20 -22 31 -20 22 5 -4 8 -14 15 -23 15 -16 0 -16 -2 1
-20z"/>
<path d="M3790 1299 c0 -18 2 -19 15 -9 15 12 12 30 -6 30 -5 0 -9 -10 -9 -21z"/>
<path d="M3700 1172 c0 -31 -6 -85 -14 -119 -7 -35 -9 -63 -5 -63 4 0 10 21
14 48 4 26 10 52 13 57 14 21 32 81 32 105 0 19 -6 26 -20 27 -18 2 -20 -4
-20 -55z"/>
<path d="M3645 1210 c3 -5 10 -10 16 -10 5 0 9 5 9 10 0 6 -7 10 -16 10 -8 0
-12 -4 -9 -10z"/>
<path d="M3447 1093 c-4 -3 -7 -17 -7 -30 0 -36 33 -26 34 10 2 25 -12 36 -27
20z"/>
<path d="M3426 1014 c-2 -6 -2 -15 1 -18 7 -6 33 12 33 24 0 12 -29 7 -34 -6z"/>
<path d="M3451 974 c0 -11 3 -14 6 -6 3 7 2 16 -1 19 -3 4 -6 -2 -5 -13z"/>
<path d="M3416 947 c-20 -15 -35 -83 -35 -157 l1 -45 15 43 c8 23 19 42 24 42
5 0 9 19 8 43 -1 23 1 52 4 65 7 26 6 26 -17 9z"/>
<path d="M4290 950 c0 -5 5 -10 11 -10 5 0 7 5 4 10 -3 6 -8 10 -11 10 -2 0
-4 -4 -4 -10z"/>
<path d="M3081 924 c0 -11 3 -14 6 -6 3 7 2 16 -1 19 -3 4 -6 -2 -5 -13z"/>
<path d="M3472 915 c-3 -40 11 -124 20 -119 4 3 6 10 3 15 -4 5 -2 9 2 9 5 0
9 25 9 56 -1 51 -2 53 -13 27 l-11 -28 -5 30 c-2 17 -5 21 -5 10z"/>
<path d="M2392 890 c0 -19 2 -27 5 -17 2 9 2 25 0 35 -3 9 -5 1 -5 -18z"/>
<path d="M4310 904 c0 -8 5 -12 10 -9 6 4 8 11 5 16 -9 14 -15 11 -15 -7z"/>
<path d="M3437 815 c-4 -26 2 -50 24 -96 17 -34 33 -74 36 -90 3 -16 10 -29
15 -29 5 0 12 -10 17 -22 4 -12 11 -17 14 -11 3 5 -5 25 -18 43 -14 19 -25 46
-25 61 0 15 -4 31 -10 34 -5 3 -10 15 -10 25 0 10 -8 23 -17 28 -12 7 -16 22
-15 51 2 50 -3 53 -11 6z"/>
<path d="M4491 784 c0 -11 3 -14 6 -6 3 7 2 16 -1 19 -3 4 -6 -2 -5 -13z"/>
<path d="M3501 774 c0 -11 3 -14 6 -6 3 7 2 16 -1 19 -3 4 -6 -2 -5 -13z"/>
<path d="M4231 764 c0 -11 3 -14 6 -6 3 7 2 16 -1 19 -3 4 -6 -2 -5 -13z"/>
<path d="M3350 714 c0 -31 7 -54 21 -72 l20 -26 -2 44 c-5 92 -39 139 -39 54z"/>
<path d="M4502 717 c2 -24 7 -36 15 -33 6 3 14 0 16 -7 2 -7 3 1 0 18 -2 16
-10 36 -18 45 -14 13 -15 10 -13 -23z"/>
<path d="M4220 676 c0 -9 5 -16 10 -16 6 0 10 4 10 9 0 6 -4 13 -10 16 -5 3
-10 -1 -10 -9z"/>
<path d="M3605 640 c-3 -5 0 -10 9 -10 8 0 16 -6 19 -12 2 -7 8 -10 12 -6 8 8
-12 38 -26 38 -4 0 -11 -4 -14 -10z"/>
<path d="M4238 623 c5 -21 7 -23 10 -9 2 10 0 22 -6 28 -6 6 -7 0 -4 -19z"/>
<path d="M4541 634 c0 -11 3 -14 6 -6 3 7 2 16 -1 19 -3 4 -6 -2 -5 -13z"/>
<path d="M4501 604 c0 -11 3 -14 6 -6 3 7 2 16 -1 19 -3 4 -6 -2 -5 -13z"/>
<path d="M3581 585 c-1 -21 15 -53 22 -45 2 3 -2 19 -9 35 -10 23 -13 25 -13
10z"/>
<path d="M3264 535 c-4 -8 -2 -21 4 -28 5 -6 12 -32 15 -56 6 -50 18 -66 42
-57 14 5 16 15 12 54 -3 26 -3 38 0 27 12 -46 20 -32 10 17 -9 44 -12 49 -17
28 l-6 -25 -7 28 c-8 30 -43 38 -53 12z"/>
<path d="M3360 519 c7 -11 14 -18 17 -15 8 8 -5 36 -17 36 -7 0 -7 -6 0 -21z"/>
<path d="M4081 435 c0 -11 4 -27 9 -35 9 -13 10 -13 9 0 0 8 -4 24 -9 35 l-9
20 0 -20z"/>
<path d="M4730 441 c0 -5 -3 -16 -6 -25 -3 -9 -2 -16 4 -16 5 0 12 11 14 25 3
14 1 25 -3 25 -5 0 -9 -4 -9 -9z"/>
<path d="M4031 404 c0 -11 3 -14 6 -6 3 7 2 16 -1 19 -3 4 -6 -2 -5 -13z"/>
<path d="M3240 356 c0 -9 5 -16 10 -16 6 0 10 4 10 9 0 6 -4 13 -10 16 -5 3
-10 -1 -10 -9z"/>
<path d="M3316 335 c-23 -36 -21 -65 5 -58 25 7 53 48 45 68 -8 23 -32 18 -50
-10z"/>
<path d="M2076 293 c-3 -10 -5 -22 -5 -27 0 -5 -4 -12 -10 -15 -5 -4 -19 -27
-30 -51 -31 -67 -55 -103 -71 -107 -11 -3 -10 0 3 10 9 8 17 20 17 28 0 11
-13 -4 -59 -70 -8 -11 -18 -18 -23 -15 -4 3 -18 0 -30 -7 l-23 -12 21 24 c12
13 25 37 28 54 4 16 12 33 18 36 13 8 3 39 -12 39 -5 0 -10 -5 -10 -11 0 -6
-11 -24 -25 -41 -14 -16 -25 -36 -25 -44 0 -8 -4 -14 -10 -14 -5 0 -10 4 -10
9 0 6 5 13 10 16 6 3 9 18 9 33 -1 17 -3 21 -6 10 -2 -10 -11 -18 -19 -18 -8
0 -14 -5 -14 -11 0 -5 -4 -7 -10 -4 -6 4 -10 -5 -10 -19 0 -29 -27 -36 -36
-11 -9 23 -28 18 -41 -11 -11 -23 -9 -27 20 -45 29 -18 49 -19 217 -18 214 2
190 -15 191 132 0 49 -2 92 -6 95 -8 9 -45 -36 -45 -54 0 -8 -5 -14 -11 -14
-5 0 -7 5 -3 12 4 6 10 28 14 47 4 20 11 48 15 64 8 30 -10 39 -19 10z"/>
<path d="M1911 229 c-11 -33 -8 -49 11 -49 6 0 9 3 5 6 -3 4 0 19 8 34 13 26
11 40 -6 40 -4 0 -12 -14 -18 -31z"/>
<path d="M3307 127 c-33 -36 -118 -98 -126 -93 -4 3 -12 -4 -19 -14 -11 -19
-9 -20 63 -19 64 1 75 3 75 18 0 9 4 21 10 27 15 15 39 104 29 104 -6 0 -20
-11 -32 -23z"/>
<path d="M3840 102 c-72 -4 -90 -10 -90 -33 0 -11 -7 -31 -17 -45 l-16 -25
124 2 c68 1 132 6 142 11 11 6 17 5 17 -2 0 -6 5 -8 10 -5 18 11 -10 35 -41
35 -16 0 -29 4 -29 9 0 5 -10 7 -22 3 -21 -5 -22 -4 -9 12 8 9 12 18 10 19 -2
1 -11 7 -19 12 -8 6 -35 9 -60 7z"/>
<path d="M4193 79 c-6 -6 -23 -11 -38 -11 -19 -1 -25 -5 -21 -15 3 -8 6 -23 6
-34 0 -10 7 -19 15 -19 8 0 15 4 15 10 0 5 7 7 16 3 14 -5 15 -3 4 17 -10 18
-9 24 1 31 8 5 21 6 29 3 8 -4 24 -9 35 -12 20 -5 20 -5 1 16 -21 24 -46 28
-63 11z"/>
<path d="M4320 68 c-5 -13 -17 -33 -26 -45 l-16 -23 71 0 c82 0 87 8 40 58
-35 38 -56 41 -69 10z"/>
</g>
</svg>
